{"title":"Circa - It's Time [2006][skateboarding].avi","uid":4763484,"size":670401536,"categoryP":"video","categoryS":"movies","magnet":"?xt=urn:btih:61c61cb64dec1760090c8d072448c09084614960&amp;dn=Circa+-+It%5C%27s+Time+%5B2006%5D%5Bskateboarding%5D.avi&amp;tr=udp%3A%2F%2Ftracker.openbittorrent.com%3A80&amp;tr=udp%3A%2F%2Fopen.demonii.com%3A1337&amp;tr=udp%3A%2F%2Ftracker.coppersurfer.tk%3A6969&amp;tr=udp%3A%2F%2Fexodus.desync.com%3A6969","seeders":1,"leechers":0,"uploader":"highateus","files":1,"time":1236784728,"description":"Free Vid from 2006 by Circa Skate Shoes. Sick.\n\nFeatures:\nJon Allie, Sierra Fellers, Dennis Durrant, Tony Tave, Windsor James, Colt Cannon, Adrian Lopez and Peter Ramondetta.\n\n\n\nGeneral\n\nComplete name                    : Circa - Its Time [2006].avi\nFormat                           : AVI\nFormat/Info                      : Audio Video Interleave\nFile size                        : 639 MiB\nDuration                         : 42mn 45s\nOverall bit rate                 : 2090 Kbps\n\n\n\nVideo\n\nFormat                           : MPEG-4 Visual\nFormat profile                   : Streaming Video@L1\nFormat settings, BVOP            : Yes\nFormat settings, QPel            : No\nFormat settings, GMC             : No warppoints\nFormat settings, Matrix          : Default\nMuxing mode                      : Packed bitstream\nCodec ID                         : XVID\nCodec ID/Hint                    : XviD\nDuration                         : 42mn 45s\nBit rate                         : 1889 Kbps\nWidth                            : 720 pixels\nHeight                           : 480 pixels\nDisplay aspect ratio             : 1.500\nFrame rate                       : 23.976 fps\nStandard                         : NTSC\nResolution                       : 24 bits\nColorimetry                      : 4:2:0\nScan type                        : Progressive\nBits/(Pixel*Frame)               : 0.228\nStream size                      : 578 MiB (90%)\nWriting library                  : XviD 1.1.2 (UTC 2006-11-01)\n\n\n\nAudio\n\nFormat                           : MPEG Audio\nFormat version                   : Version 1\nFormat profile                   : Layer 3\nCodec ID                         : 55\nCodec ID/Hint                    : MP3\nDuration                         : 42mn 45s\nBit rate mode                    : Constant\nBit rate                         : 192 Kbps\nChannel(s)                       : 2 channels\nSampling rate                    : 44.1 KHz\nResolution                       : 16 bits\nVideo delay                      : 26ms\nStream size                      : 58.7 MiB (9%)\nAlignment                        : Split accross interleaves\nInterleave, duration             : 42 ms (1.00 video frame)\nTitle                            : Audio Stream\nWriting library                  : LAME3.92","torrent":{"xt":"urn:btih:61c61cb64dec1760090c8d072448c09084614960","amp;dn":"Circa+-+It%5C%27s+Time+%5B2006%5D%5Bskateboarding%5D.avi","amp;tr":["udp%3A%2F%2Ftracker.openbittorrent.com%3A80","udp%3A%2F%2Fopen.demonii.com%3A1337","udp%3A%2F%2Ftracker.coppersurfer.tk%3A6969","udp%3A%2F%2Fexodus.desync.com%3A6969"],"infoHash":"61c61cb64dec1760090c8d072448c09084614960","infoHashBuffer":{"type":"Buffer","data":[97,198,28,182,77,236,23,96,9,12,141,7,36,72,192,144,132,97,73,96]},"announce":[],"urlList":[]}}